<svg xmlns="http://www.w3.org/2000/svg" width="780" height="440" viewBox="0 0 780 440" fill="none"><rect width="780" height="440" transform="matrix(-1 0 0 1 780 0)" fill="#205BC3"></rect><g filter="url(#filter0_d_2214_29779)"><circle cx="91.6931" cy="91.6931" r="90.9431" transform="matrix(-1 0 0 1 390 207)" fill="#A1C2F8" stroke="#040404" stroke-width="1.5"></circle><path d="M298.385 348.77C326.212 348.77 348.77 326.212 348.77 298.385C348.77 270.558 326.212 248 298.385 248C270.558 248 248 270.558 248 298.385C248 326.212 270.558 348.77 298.385 348.77Z" fill="white" stroke="#040404" stroke-width="1.5" stroke-miterlimit="10"></path><path d="M316.072 281.882C315.525 271.912 307.458 264 297.56 264C287.661 264 279 272.483 279 282.952C279 283.381 279.036 283.809 279.059 284.237C279.714 294.1 287.733 301.905 297.56 301.905C307.387 301.905 316.12 293.422 316.12 282.952C316.12 282.595 316.084 282.239 316.072 281.893V281.882Z" fill="#0C3F89" stroke="#040404" stroke-width="1.5" stroke-linecap="round" stroke-linejoin="round"></path><path d="M298.55 308.012C281.632 308.012 267.617 320.373 265 336.542C273.863 344.299 285.451 348.998 298.158 348.998C310.864 348.998 323.047 344.061 331.994 335.947C329.138 320.064 315.254 308 298.55 308V308.012Z" fill="#205BC3" stroke="#040404" stroke-width="1.5" stroke-miterlimit="10"></path></g><g filter="url(#filter1_d_2214_29779)"><circle cx="91.6931" cy="91.6931" r="90.9431" transform="matrix(-1 0 0 1 573 207)" fill="#A1C2F8" stroke="#040404" stroke-width="1.5"></circle><path d="M431.233 297.018L482.283 274.566L496.138 306.071L445.089 328.523C443.85 329.067 442.419 328.511 441.874 327.272L429.982 300.233C429.437 298.994 429.994 297.563 431.233 297.018Z" fill="white" stroke="#040404" stroke-width="1.5" stroke-miterlimit="10"></path><path d="M512.731 292.462C519.762 292.462 525.462 286.762 525.462 279.731C525.462 272.7 519.762 267 512.731 267C505.7 267 500 272.7 500 279.731C500 286.762 505.7 292.462 512.731 292.462Z" fill="#A1C2F8" stroke="#040404" stroke-width="1.5" stroke-miterlimit="10"></path><path d="M465.018 349.767L453.88 324.441L466.099 319.067L477.237 344.393C477.782 345.632 477.225 347.063 475.987 347.608L468.233 351.018C466.994 351.563 465.563 351.006 465.018 349.767Z" fill="#205BC3" stroke="#040404" stroke-width="1.5" stroke-miterlimit="10"></path><path d="M526.532 307.567L492.85 307.417L479 275.907L501.655 250.98C503.109 249.376 505.748 249.81 506.617 251.782L529.289 303.34C530.158 305.328 528.704 307.55 526.532 307.55V307.567Z" fill="#205BC3" stroke="#040404" stroke-width="1.5" stroke-miterlimit="10"></path><path d="M429.276 308.457L433.023 306.809L439.628 321.827L435.881 323.475C435.178 323.785 434.363 323.468 434.054 322.764L428.558 310.269C428.249 309.566 428.566 308.751 429.269 308.442L429.276 308.457Z" fill="#205BC3" stroke="#040404" stroke-width="1.5" stroke-miterlimit="10"></path><path d="M533 270.795L543.876 266" stroke="#040404" stroke-width="1.5" stroke-linecap="round" stroke-linejoin="round"></path><path d="M527 263.089L534.669 254" stroke="#040404" stroke-width="1.5" stroke-linecap="round" stroke-linejoin="round"></path><path d="M534 279L545.879 279.501" stroke="#040404" stroke-width="1.5" stroke-linecap="round" stroke-linejoin="round"></path></g><g filter="url(#filter2_d_2214_29779)"><circle cx="91.6931" cy="91.6931" r="90.9431" transform="matrix(-1 0 0 1 482 49)" fill="#A1C2F8" stroke="#040404" stroke-width="1.5"></circle><path d="M413.767 179H433V112.841H413.767V179Z" fill="#0C3F89" stroke="#040404" stroke-width="1.5" stroke-miterlimit="10"></path><path d="M380.767 179H400V84.2262H380.767V179Z" fill="#205BC3" stroke="#040404" stroke-width="1.5" stroke-miterlimit="10"></path><path d="M347.767 179H367V96.2063H347.767V179Z" fill="white" stroke="#040404" stroke-width="1.5" stroke-linecap="round" stroke-linejoin="round"></path></g><g filter="url(#filter3_d_2214_29779)"><path d="M389.637 293.275C415.947 293.275 437.275 271.947 437.275 245.637C437.275 219.328 415.947 198 389.637 198C363.328 198 342 219.328 342 245.637C342 271.947 363.328 293.275 389.637 293.275Z" fill="#205BC3" stroke="#040404" stroke-width="1.5" stroke-miterlimit="10"></path><path d="M402.405 248.93L403.766 237.969H393.996V232.21C393.996 229.02 395.217 226.291 399.598 226.291L404.495 226.288V216.434C402.745 216.3 399.695 216 395.836 216C387.78 216 381.748 221.69 381.748 231.119V237.969H373V248.93H381.748V274.434C384.015 274.87 386.353 275.106 388.747 275.106C390.53 275.106 392.281 274.972 393.996 274.727V248.93H402.405Z" fill="white"></path></g><defs><filter id="filter0_d_2214_29779" x="206.614" y="207" width="191.386" height="191.386" filterUnits="userSpaceOnUse" color-interpolation-filters="sRGB"><feFlood flood-opacity="0" result="BackgroundImageFix"></feFlood><feColorMatrix in="SourceAlpha" type="matrix" values="0 0 0 0 0 0 0 0 0 0 0 0 0 0 0 0 0 0 127 0" result="hardAlpha"></feColorMatrix><feOffset dx="8" dy="8"></feOffset><feComposite in2="hardAlpha" operator="out"></feComposite><feColorMatrix type="matrix" values="0 0 0 0 0.0156863 0 0 0 0 0.0156863 0 0 0 0 0.0156863 0 0 0 0.1 0"></feColorMatrix><feBlend mode="normal" in2="BackgroundImageFix" result="effect1_dropShadow_2214_29779"></feBlend><feBlend mode="normal" in="SourceGraphic" in2="effect1_dropShadow_2214_29779" result="shape"></feBlend></filter><filter id="filter1_d_2214_29779" x="389.614" y="207" width="191.386" height="191.386" filterUnits="userSpaceOnUse" color-interpolation-filters="sRGB"><feFlood flood-opacity="0" result="BackgroundImageFix"></feFlood><feColorMatrix in="SourceAlpha" type="matrix" values="0 0 0 0 0 0 0 0 0 0 0 0 0 0 0 0 0 0 127 0" result="hardAlpha"></feColorMatrix><feOffset dx="8" dy="8"></feOffset><feComposite in2="hardAlpha" operator="out"></feComposite><feColorMatrix type="matrix" values="0 0 0 0 0.0156863 0 0 0 0 0.0156863 0 0 0 0 0.0156863 0 0 0 0.1 0"></feColorMatrix><feBlend mode="normal" in2="BackgroundImageFix" result="effect1_dropShadow_2214_29779"></feBlend><feBlend mode="normal" in="SourceGraphic" in2="effect1_dropShadow_2214_29779" result="shape"></feBlend></filter><filter id="filter2_d_2214_29779" x="298.614" y="49" width="191.386" height="191.386" filterUnits="userSpaceOnUse" color-interpolation-filters="sRGB"><feFlood flood-opacity="0" result="BackgroundImageFix"></feFlood><feColorMatrix in="SourceAlpha" type="matrix" values="0 0 0 0 0 0 0 0 0 0 0 0 0 0 0 0 0 0 127 0" result="hardAlpha"></feColorMatrix><feOffset dx="8" dy="8"></feOffset><feComposite in2="hardAlpha" operator="out"></feComposite><feColorMatrix type="matrix" values="0 0 0 0 0.0156863 0 0 0 0 0.0156863 0 0 0 0 0.0156863 0 0 0 0.1 0"></feColorMatrix><feBlend mode="normal" in2="BackgroundImageFix" result="effect1_dropShadow_2214_29779"></feBlend><feBlend mode="normal" in="SourceGraphic" in2="effect1_dropShadow_2214_29779" result="shape"></feBlend></filter><filter id="filter3_d_2214_29779" x="341.25" y="197.25" width="104.775" height="104.774" filterUnits="userSpaceOnUse" color-interpolation-filters="sRGB"><feFlood flood-opacity="0" result="BackgroundImageFix"></feFlood><feColorMatrix in="SourceAlpha" type="matrix" values="0 0 0 0 0 0 0 0 0 0 0 0 0 0 0 0 0 0 127 0" result="hardAlpha"></feColorMatrix><feOffset dx="8" dy="8"></feOffset><feComposite in2="hardAlpha" operator="out"></feComposite><feColorMatrix type="matrix" values="0 0 0 0 0.0156863 0 0 0 0 0.0156863 0 0 0 0 0.0156863 0 0 0 0.1 0"></feColorMatrix><feBlend mode="normal" in2="BackgroundImageFix" result="effect1_dropShadow_2214_29779"></feBlend><feBlend mode="normal" in="SourceGraphic" in2="effect1_dropShadow_2214_29779" result="shape"></feBlend></filter></defs></svg>